<svg xmlns="http://www.w3.org/2000/svg" width="959" height="405" viewBox="0 0 959 405">
<rect x="0" y="0" width="959" height="405" fill="#ffffff" />
<g transform="translate(-40, -2)">
<text x="70" y="44.4" font-family="Excalifont, Comic Neue, Segoe Print, sans-serif" font-size="16" fill="#1e1e1e" text-anchor="start">A: Database (pool=600)</text>
<path d="M59.637892609781645 79.87816676961748 C61.192955241781995 156.85870791740683, 62.07761325813882 237.06075528191298, 61.373679373085515 361.51505821101216 M59.456110486751335 79.92028597385914 C62.54556122001302 162.93565807558178, 61.43092011198205 246.14842473938674, 60.66608821276828 360.28191853750644" stroke="#868e96" stroke-width="1" fill="none" fill-rule="nonzero" />
<path d="M60.85399734220775 360.8966097102251 C126.94260382134385 359.30963296970106, 196.8741288740464 359.6442320428408, 259.08285731231973 360.1263309849423 M59.95138664179616 360.5167781425529 C118.79780090575896 359.0704030583558, 177.79127064804476 358.6269928862564, 259.36169376710984 359.8296961601292" stroke="#868e96" stroke-width="1" fill="none" fill-rule="nonzero" />
<path d="M61.08518765230267 361.00646830224264 C126.58925193301634 361.1400680077927, 196.80634057059115 361.1191121386594, 261.70785687817386 358.74107033119515 M60.85153604649282 360.88397225494344 C121.21670342100889 358.3204144904556, 180.80730296642912 358.53103565455166, 260.4766649561965 360.3588165608913" stroke="#e9ecef" stroke-width="1" fill="none" fill-rule="nonzero" />
<path d="M58.45744884060508 289.7618488478228 C103.10587962937194 289.4882561705513, 147.42184626805334 290.1386614794903, 259.57906131591824 288.6818046906554 M60.6064830582889 289.38948666359056 C133.30325353067144 287.79481036999493, 205.51698284323348 289.19884013762936, 260.30802962341244 289.5275237428609" stroke="#e9ecef" stroke-width="1" fill="none" fill-rule="nonzero" />
<path d="M59.158074824518366 218.65579832594491 C118.5113653954616 219.67182650936388, 180.92754374537745 218.85761940476047, 258.5112900176449 219.60439373808683 M59.258811236594624 219.64359765922447 C132.6549710706085 218.28214623173997, 204.9014920859674 218.579641582413, 260.01566313098004 220.096835536744" stroke="#e9ecef" stroke-width="1" fill="none" fill-rule="nonzero" />
<path d="M59.73966178811948 150.45111031523993 C107.83162690914206 149.1032729884288, 155.09259816167634 151.6343473523618, 259.59986764448456 148.65310691424096 M60.152944841547914 149.41375035943935 C100.43235252353848 149.2873243733983, 140.359486046542 149.32640815264492, 259.6144980056324 149.2956538820547" stroke="#e9ecef" stroke-width="1" fill="none" fill-rule="nonzero" />
<path d="M61.23639966841156 79.57260989442997 C107.52779285808808 81.77494860301638, 152.79892552952273 79.96921438702655, 258.3412278269287 78.29526567443901 M60.75904404909756 80.07380598851529 C129.39242103168215 82.09609372388002, 197.38264433069972 80.67333994240006, 260.8494636916999 79.84647404532055" stroke="#e9ecef" stroke-width="1" fill="none" fill-rule="nonzero" />
<path d="M73.28840602189302 331.73458279818294 L105.33375108987093 330.5863591596484 L103.43049538880587 358.44291304796934 L76.85573852807283 358.35448860377073" stroke="none" stroke-width="0" fill="#a5d8ff" fill-rule="nonzero" />
<path d="M75.46807169169188 330.3761296585202 C84.55417722836137 333.7384148839861, 99.20643724501133 332.9700926546007, 103.30024098604918 331.02013757973907 M74.78267139568925 331.4184413157403 C85.89116948097944 332.47374281622467, 97.70761815831065 333.02305934168396, 105.71978384628892 332.7735442124307 M103.58933591097593 333.92125871926544 C106.21193614451913 341.67553139854687, 105.94920292346505 347.7661154181603, 105.9263803884387 361.30773032456636 M104.40096575394273 332.1054085694253 C105.59680252738715 343.00701065588277, 104.14238994785072 353.45548392764294, 105.57471532002091 360.08321272954345 M106.50288986414671 361.9966322258115 C93.1491687707603 358.6584004547447, 82.45291075110435 357.985460915789, 75.55843257158995 360.0986632183194 M105.3773266710341 359.9357374869287 C98.12591429054737 360.8536330413073, 90.29070445522666 359.27139591686426, 75.8391049541533 360.43524193391204 M76.0649347230792 361.4640177562833 C76.46466010151478 352.19712211589797, 76.41098754940602 346.21429172209463, 73.60728620737791 332.4000163391232 M75.11373168602586 359.9422161541879 C75.44647554821847 348.5789152390929, 74.18428556389688 338.9722023061756, 75.45008653774858 332.21476366147397" stroke="#495057" stroke-width="2" fill="none" fill-rule="nonzero" />
<path d="M114.79594399407506 331.9658713305493 L144.22166361287236 330.877590295126 L143.807802695781 361.44392804428935 L112.85062589123845 361.5623959712684" stroke="none" stroke-width="0" fill="#b2f2bb" fill-rule="nonzero" />
<path d="M114.82512490078807 332.557419274201 C121.86784143187106 332.21310143583764, 130.81062433868647 329.985329080758, 141.94049267098308 332.47505435739953 M113.23375839926302 331.70502415878076 C121.86116422340274 332.0361151035999, 130.01561815850437 332.6954429086422, 142.4414372537285 331.5710080621888 M143.46515564247966 333.48135146891076 C142.1537799136307 341.9116009961404, 143.24046759768984 352.0055658859188, 141.3410634212196 361.4724056906998 M143.9290981385857 332.4495810030152 C143.47895576545434 337.5036225999904, 142.95262451955514 345.271674435613, 142.30683047510684 360.0138638820499 M143.8533057384193 361.9212992377579 C135.36515451781452 358.97864549513906, 127.72799740731716 358.29511599894613, 112.41638926789165 360.5263503976166 M142.23307473398745 359.7504843082279 C134.43797744065523 359.2566266087815, 126.67298001609743 359.6949194101617, 113.88492549397051 360.2385194506496 M113.81953124329448 359.5926450677216 C113.72942569333452 354.3441114333632, 112.04274454194444 345.3435216771786, 114.69564501568675 330.43388554846246 M113.85278047062457 360.56609751842916 C113.04821828939679 353.6266711878565, 113.87408659794094 346.4743752131189, 113.31445522047579 331.02128092033166" stroke="#495057" stroke-width="2" fill="none" fill-rule="nonzero" />
<text x="73" y="381.9" font-family="Excalifont, Comic Neue, Segoe Print, sans-serif" font-size="11" fill="#495057" text-anchor="start">N=50</text>
<path d="M164.5763021465391 250.9000822551797 L192.47637311182916 249.2256477721284 L193.8494417425245 359.4023534003645 L162.00098899565637 360.73980932869017" stroke="none" stroke-width="0" fill="#a5d8ff" fill-rule="nonzero" />
<path d="M164.2986218277365 250.99341333510978 C170.96010126452893 248.8069308704945, 177.55901394411922 250.74140468307462, 191.9460833016783 247.60622197988135 M162.71317507606 249.89326315878583 C173.63230735994875 250.01172276579467, 186.43048608396202 249.29027014218894, 192.5498194573447 248.55419215320302 M192.86721968092024 247.78038436772925 C193.14546349947804 272.8925572016074, 193.9135892123496 293.4140680329221, 191.23037367500365 358.36766610108316 M193.06914399843663 248.86911520122243 C194.74444460686826 291.9350351981823, 193.7127038520255 332.9311891505254, 193.92549033742398 360.34407779295 M194.41687565483153 358.0047343727201 C179.59547510836273 361.62312297122554, 167.8815517500043 358.5346513797529, 162.14422070421278 358.6776130553335 M192.58129711728543 360.79314848501235 C185.48082902655005 359.82653987044466, 178.05231509078294 360.0048350953497, 163.7204984901473 359.18261789996177 M161.7967718783766 358.9753411170095 C162.31307847511565 325.23603267100617, 164.74263836157118 291.64031515212685, 161.82782214321196 251.0218416512261 M163.29135196190327 359.8505530329421 C163.55685344882573 321.715630576491, 163.8095384294566 282.7190109230794, 162.56542863231152 250.02467697619153" stroke="#495057" stroke-width="2" fill="none" fill-rule="nonzero" />
<path d="M199.04370577447116 247.94310616421203 L232.60598601214588 246.77245896028975 L232.29480548016727 361.555333154276 L202.4866900574416 360.0157627630979" stroke="none" stroke-width="0" fill="#b2f2bb" fill-rule="nonzero" />
<path d="M201.4433062840253 247.05930285247663 C208.87760914023966 250.42607141927505, 219.17087691649795 246.63941557601714, 230.8240991998464 249.31414245160917 M201.29953242000192 248.9511125795419 C207.43158284015954 247.69270478755857, 216.46683817822486 248.93904240996267, 231.73436436709017 248.72403047605107 M232.35918249376118 249.31982301267485 C231.86704705633204 275.72332269849335, 232.08685891307871 307.36230936856475, 230.73681874759495 359.97776515595615 M231.8120566373691 249.00760911031315 C231.60279252821698 273.6743014864926, 232.05503040248647 299.9269399457409, 231.33554882463068 359.27731374744326 M231.31271930225194 359.27343900315464 C224.53841277677566 360.9956409842707, 219.66762683540583 359.572499087546, 202.45654703862965 360.9821016918868 M231.54627484735101 359.23315648082644 C223.1503323726356 359.2031648446806, 216.31402792129666 360.331435679365, 200.1677961712703 360.6889833891764 M201.87746407277882 360.0682571064681 C199.67739035662035 326.44674950371234, 200.09869070824007 294.42828259614697, 201.05878456123173 249.81122188361982 M200.72273758705705 360.2660648310557 C200.82520034203833 317.9952599869614, 200.63399987707442 277.0885384329672, 201.49755538161844 247.7174927703912" stroke="#495057" stroke-width="2" fill="none" fill-rule="nonzero" />
<text x="161" y="381.9" font-family="Excalifont, Comic Neue, Segoe Print, sans-serif" font-size="11" fill="#495057" text-anchor="start">N=200</text>
<path d="M252.01227369718254 247.74947003153463 L282.2070588748902 250.2247831585755 L280.0470142643899 358.4255563635379 L251.03122433833778 359.2300359029323" stroke="none" stroke-width="0" fill="#a5d8ff" fill-rule="nonzero" />
<path d="M252.06506252475083 247.91896558058758 C261.1317822178826 247.52603147755687, 272.37452920898795 249.9903345538241, 282.3381736893207 247.26799053204556 M251.7716458281502 248.4016039722537 C259.9297198820859 247.43473706449691, 267.693917860277 247.8530843933982, 280.607414140366 247.77380294137944 M279.4098971504718 248.43118375790615 C281.47528577058296 280.89499191959254, 279.50772971122245 312.0636016407272, 280.75130856223404 359.41560759954154 M280.61597455944866 248.9937924795722 C279.9414121219387 274.3767132937046, 279.63497418253326 301.09126958299566, 281.65909360256046 359.10728919599205 M279.14229166693985 358.56105485372245 C272.80850483942777 360.7071520381607, 264.8740119114518 358.942409246508, 250.71539443917572 361.80497345142066 M280.26595877017826 359.09579527471215 C271.32349533960223 359.26134881200267, 262.9682959700003 361.0935049635358, 250.59830720629543 359.8871550867334 M250.34311765618622 359.6323817651719 C250.67552229637272 317.550627698103, 253.5230106400884 273.5031429639199, 251.61013102717698 247.92064619315167 M250.17676813807338 359.77479294035584 C249.6537003950958 326.48225097598316, 250.7278567092304 293.2794621625504, 250.6526855668053 249.0708285921191" stroke="#495057" stroke-width="2" fill="none" fill-rule="nonzero" />
<path d="M287.8742250818759 103.7689272325486 L317.3364423532039 100.45883150510491 L319.70558291859925 359.19306370429695 L289.37807011790574 361.822661427781" stroke="none" stroke-width="0" fill="#b2f2bb" fill-rule="nonzero" />
<path d="M287.9992982428521 101.17548071332277 C296.44111490342766 101.9804836110212, 308.1474865414202 102.35082580605523, 320.212378827855 100.7883993882686 M289.7112263450399 101.65690142121167 C300.65380997769535 102.61803844058888, 311.0275469077751 102.50513916695492, 319.4360959837213 102.83923021163793 M320.3838483229926 102.1077040567053 C319.6593078860721 204.98193771424943, 319.60840312027057 304.3104807415639, 320.08133331259364 359.6439545276385 M318.63042890141355 102.4050657746654 C318.83312141651555 168.72775885618387, 319.25041046340726 233.76024043160655, 318.28884305687694 360.2962247056505 M318.2416968625039 359.94924992509186 C306.5507892323658 358.1548573873006, 296.4499981030822 361.0458103916608, 289.027161328122 359.1044697780162 M318.84022635314614 359.56629271712154 C310.7247662432492 359.4501634689979, 301.7067802315578 359.736168995779, 289.06152734253556 359.9863515337929 M288.22828208733057 359.66479945353257 C290.72875386322437 305.3243389730994, 290.0689036827078 246.90831993948478, 288.4745592920833 102.9077698345252 M289.62140927896894 359.3350913894287 C287.38243053762557 297.2561597348097, 287.6989458131376 236.48599765129347, 289.77303952376985 101.91005477463278" stroke="#495057" stroke-width="2" fill="none" fill-rule="nonzero" />
<text x="249" y="381.9" font-family="Excalifont, Comic Neue, Segoe Print, sans-serif" font-size="11" fill="#495057" text-anchor="start">N=500</text>
<text x="370" y="44.4" font-family="Excalifont, Comic Neue, Segoe Print, sans-serif" font-size="16" fill="#1e1e1e" text-anchor="start">B: Database (pool=10)</text>
<path d="M359.70532623790245 81.38910978940685 C362.27968323085884 174.1515384461339, 362.4562332376168 269.509353452539, 360.7653097799049 359.9019457891639 M359.7563526410512 80.53579618280044 C359.3054413423373 191.7285123286026, 358.54549433058696 303.5500534682058, 360.4642817101703 359.68101163067394" stroke="#868e96" stroke-width="1" fill="none" fill-rule="nonzero" />
<path d="M360.05936099031555 359.89714752276853 C404.2925802106414 359.40617532851485, 451.1763410292453 361.94072616405026, 560.7584178585548 358.64613030122536 M360.8508124727833 360.15535772227423 C419.21980643894733 359.61387331708335, 476.703230953415 359.3540438368242, 559.4509282881038 359.99369506061066" stroke="#868e96" stroke-width="1" fill="none" fill-rule="nonzero" />
<path d="M358.5889483064141 360.7559149168808 C419.05021113652316 357.1250160261085, 477.4824693592217 358.47254385002816, 559.823005015592 358.8283156409591 M360.4180801345134 360.1291970964452 C415.10154362933156 361.19874717093785, 471.72918685439913 361.30055570725926, 559.5744133823005 359.314901025539" stroke="#e9ecef" stroke-width="1" fill="none" fill-rule="nonzero" />
<path d="M359.39005648411023 290.96592848431095 C421.2331290284478 288.8595225916507, 482.1191157660037 289.6177028653184, 558.5919642694437 288.7437303183755 M359.53136535230624 290.2833851738482 C406.95076246632556 289.9961102312068, 454.83391256677413 289.7537388523542, 560.4474126960258 289.48219785986134" stroke="#e9ecef" stroke-width="1" fill="none" fill-rule="nonzero" />
<path d="M358.62434459400765 219.41951334230296 C428.400524391238 218.91684017156336, 493.2687983004259 219.15604548189532, 560.1188331633647 221.56130077586226 M360.8215006994666 220.0058759525673 C438.43567281296345 220.3369277877406, 517.732868299162 220.6756636464439, 559.7451708921469 219.98876682329393" stroke="#e9ecef" stroke-width="1" fill="none" fill-rule="nonzero" />
<path d="M358.4434120360027 148.97170188791563 C437.98782754218564 150.17827184161996, 519.2519348067685 149.1325030724008, 561.0893878954219 148.56233190765073 M359.7240651530472 149.9642027421246 C432.4099175920627 149.85639843822963, 504.11543507906333 150.4690771532969, 560.7255051007085 149.268480299802" stroke="#e9ecef" stroke-width="1" fill="none" fill-rule="nonzero" />
<path d="M361.7869493931935 80.72610284389368 C420.1765137335798 80.68577221713423, 478.161210963397 81.368847872872, 561.3515407972628 79.31061667328957 M359.10395376956797 79.70285081611826 C422.4980968753626 80.10219365269153, 484.1416766742896 80.96471187364028, 559.360052029372 79.77908581838102" stroke="#e9ecef" stroke-width="1" fill="none" fill-rule="nonzero" />
<path d="M375.5177911091596 132.42796357584496 L405.09643627889454 133.20895185184975 L404.18150730617344 358.5391762983054 L375.57909549959004 361.5188607107848" stroke="none" stroke-width="0" fill="#a5d8ff" fill-rule="nonzero" />
<path d="M373.2921476494521 134.39252003518243 C381.4578406298533 135.1697079642055, 387.89674032106996 134.09786904885743, 404.6473462115973 135.18231334773202 M374.7358360970393 134.6775735165303 C381.9892956595868 134.10111597537372, 391.6994898794219 134.83066422104213, 405.7800314212218 135.03006713048865 M405.9024606711609 134.0784613415183 C405.9533545481954 206.589738654878, 405.9292935891163 280.1603901020486, 405.3127836436061 360.5159277107548 M405.5500663225133 134.0244606541087 C403.73852076656357 210.12581971947085, 402.76669580962783 284.24415424276765, 404.25686631737256 359.7576020495409 M403.36510027758777 361.755499439314 C394.0292171416804 359.4966994180344, 381.654406927526 360.9191956772469, 374.3397713433951 358.10251702554524 M405.12809456232935 359.25261820014566 C397.2341290898621 359.6420073921792, 391.1023792317137 360.0631392712705, 375.35733512882143 360.9240033393726 M374.0200890804557 360.7885284368219 C375.35195767939916 278.4585694435435, 374.4026209711974 197.3433112769961, 376.1070224139705 134.0301619453712 M375.2992055520138 359.72848061843086 C375.0213199100439 293.13006957192687, 374.66042536564066 227.8641005482257, 375.0137348627518 133.9196866638477" stroke="#495057" stroke-width="2" fill="none" fill-rule="nonzero" />
<path d="M412.3710193801671 133.3098333807041 L442.13378663547337 133.84801426840323 L444.6634167600423 358.7904240023345 L413.5570166874677 359.7525207530707" stroke="none" stroke-width="0" fill="#b2f2bb" fill-rule="nonzero" />
<path d="M411.0745251905173 134.23880479422706 C426.1266603851691 135.22609375252696, 435.67691684141755 135.28741256728145, 442.36988068930805 134.34408692208427 M412.56640283111483 134.66439407722402 C420.5128922443837 134.1826764053044, 430.56879575829953 135.04899966775747, 442.0995498383418 135.20357992903638 M442.1235760678977 136.5295764245118 C441.1073208378239 207.76891353040622, 439.97523185320205 278.12902941120717, 444.3141678202211 360.60183149176515 M442.6605091816782 135.5724621232518 C442.0625402242885 223.58689352114035, 442.2973962885325 313.5824264184439, 442.80846534641347 360.5210679235253 M444.3941552173346 361.26649595983326 C432.01353709679097 359.1414503856562, 423.9165626987815 360.7177342577837, 414.74123419635 359.1158920098096 M443.72970125917345 359.4094815617427 C434.2496586032212 360.29376577986403, 426.4794328799471 359.7583499218337, 413.0901664579287 360.4250906771049 M411.3499047707998 360.54138967626506 C414.0087228773393 303.843329345108, 412.53066941779605 245.85515462691896, 411.84902845382766 135.19833044702207 M413.7128802377031 359.44317696427373 C411.9002113873929 313.3291543888843, 412.51436037115946 268.2143526229807, 412.9391171145213 135.55332959229366" stroke="#495057" stroke-width="2" fill="none" fill-rule="nonzero" />
<text x="373" y="381.9" font-family="Excalifont, Comic Neue, Segoe Print, sans-serif" font-size="11" fill="#495057" text-anchor="start">N=50</text>
<path d="M462.25204897113144 147.55588548593224 L494.24829143472016 148.17584537677467 L492.3321822900325 359.7713221590966 L464.49194175191224 361.52030655555427" stroke="none" stroke-width="0" fill="#a5d8ff" fill-rule="nonzero" />
<path d="M462.4212819021195 148.59869721122087 C469.8764343569055 146.16302031138912, 478.29334637895226 148.88226806977764, 492.9751885216683 146.22512945123017 M463.2672237465158 147.05746806468815 C472.6265610586852 147.73181157493966, 481.027922029607 147.92292936826126, 493.50370246265084 148.1215746184811 M491.39697489090344 148.9476442400766 C494.31241726104537 204.94264298690112, 495.7364573317921 259.5489315145489, 491.6576127605436 361.07645363895506 M493.31610471955423 147.24050992161472 C495.03558454565524 213.76930510208405, 493.96935321510955 280.00378821304315, 493.6366067583773 359.7906454716058 M492.643153635785 358.66915297694504 C483.7197386873886 360.2661564460956, 476.56411357969046 358.57376403724777, 461.0173689406365 360.41613346524537 M493.28151771519333 359.14163009729236 C484.8586751110852 359.516901558917, 477.9351925915107 361.2146512034349, 463.5437856921926 359.0791478296742 M463.0211349125217 359.6287271349394 C466.17899837050567 306.01905452033856, 465.8300727113969 252.0522310054818, 464.63359005556407 147.6984999739337 M463.4168159274313 360.72442807478365 C462.1674841512532 289.2348974783046, 462.4778740345915 220.78356599258166, 462.30481614767217 148.23003652196897" stroke="#495057" stroke-width="2" fill="none" fill-rule="nonzero" />
<path d="M501.9558564182371 148.27849805591006 L530.2463235016912 147.4150834703197 L532.3608624693006 358.1922556106001 L499.37057927809656 358.2323329988867" stroke="none" stroke-width="0" fill="#b2f2bb" fill-rule="nonzero" />
<path d="M502.7259294334799 148.47301684183378 C510.77896012645215 148.2926909886611, 517.6449123434722 146.92664295065526, 529.3074271623045 149.94988493484755 M501.05977441649884 147.50419214883198 C508.86941797472537 147.45943833592656, 514.3195825824514 148.7753315985513, 531.5161926625296 147.26934630194057 M532.22051714119 147.00783268061514 C532.9396539595732 220.81873462013561, 531.1943458391064 295.53274901778394, 530.9834506916795 360.3650711807366 M531.3992096285103 147.3998629975993 C531.906772461565 221.3980150288393, 532.7333562679261 296.0432558771982, 531.5326975826252 359.8387979423996 M529.5562499109656 360.73945221863687 C521.6791898319498 358.5616283585317, 516.9413452222943 361.66189272897316, 502.64048277772963 359.74416378699243 M531.095056491904 360.4719206960872 C524.2886779569089 360.6856229745783, 518.0876031862572 359.77382267946376, 500.1660434482619 360.083291050978 M501.69275939769113 359.83412306785493 C499.4336780833128 285.07067245072153, 501.3744502742569 208.63840813233125, 500.6730991171005 148.4303208111381 M501.4836299470496 360.7789319534335 C499.76193842587924 304.77928760081306, 499.51385267215255 250.5588329960195, 501.09042443605756 149.0062611466359" stroke="#495057" stroke-width="2" fill="none" fill-rule="nonzero" />
<text x="461" y="381.9" font-family="Excalifont, Comic Neue, Segoe Print, sans-serif" font-size="11" fill="#495057" text-anchor="start">N=200</text>
<path d="M551.8094197586179 183.56783491025368 L581.8922861889005 183.61329108128945 L580.1071182563901 359.705354206264 L552.1528905704618 359.1807267591357" stroke="none" stroke-width="0" fill="#a5d8ff" fill-rule="nonzero" />
<path d="M551.2624800130725 182.23937768886486 C556.6481573022902 183.32594539361696, 563.5116101652384 186.02629687028627, 580.7489309236407 184.7112817282478 M551.41031235829 184.25451368118325 C559.8836941048503 183.07756112950543, 569.0506221465766 184.11141287224987, 581.4671834148467 183.4772847297291 M580.83160495013 183.46921439121166 C581.4263189434037 237.33151089377702, 579.4563866256699 286.5325601429244, 582.3751771375537 361.17560685425997 M580.0318492092192 184.45984488750497 C581.7582435874815 235.17657899446786, 583.6201991109724 283.9350573336085, 580.8656405843794 360.3366485796869 M581.0304219648242 360.4986640289426 C569.9205708913505 360.5108674909919, 560.0985539853573 361.5009375955909, 549.9541134759784 358.0115989521146 M581.7529076971114 359.6074472628534 C568.2472989112139 360.43131360523404, 558.0341133736074 359.52550622932614, 551.4853234924376 359.0503034554422 M550.4495072290301 359.16345251351595 C551.1217371449247 320.1765584758173, 552.3384045586363 283.2574210909506, 549.1310036107898 185.74196309993664 M550.2332778610289 359.5556297264993 C549.3006414238538 304.982214407747, 548.7019875113095 250.5196351180474, 551.7711784280837 183.62056869293252" stroke="#495057" stroke-width="2" fill="none" fill-rule="nonzero" />
<path d="M590.0270424187183 188.16459395289422 L618.3147001564503 187.69125201106073 L617.6258259117603 359.2425865828991 L587.8969431221485 358.34144923090935" stroke="none" stroke-width="0" fill="#b2f2bb" fill-rule="nonzero" />
<path d="M588.5673575103283 187.714381057024 C595.7138657718897 189.10371968895197, 603.439933359623 186.11961839348078, 620.6345753371716 186.38610060811044 M589.9657635837793 188.17395261228086 C599.5602285563946 186.96357332617046, 611.3251189440489 188.50479542165996, 618.6695280224085 187.58716967999936 M619.3469853103161 189.1279142677784 C619.8548646577299 249.41616080313923, 621.0509257920683 308.1956487935782, 619.8580202758312 361.49673464894295 M619.476592078805 187.37623599469663 C620.762671830684 246.78835843116047, 619.5950840735734 305.38137381196026, 618.0358405262232 359.05804131925106 M620.3724322021008 360.6748276054859 C606.4657797068357 358.02107199281454, 595.2851709127426 360.2397905215621, 587.3224014937878 360.6425066292286 M619.1587004810572 360.6309211105108 C611.5366762280464 359.69359941929577, 604.7774602025747 359.3838998839259, 588.5836868435144 360.1476232856512 M590.5841278731823 359.43656638264656 C588.9740143510401 311.1555515024066, 592.2631540986597 258.8755437022447, 590.6868986785412 188.08611186146737 M589.2371864467859 359.2269728034735 C588.7638863484561 317.5299319061637, 590.5258335034549 276.2432761406899, 589.4287896305323 187.9042554229498" stroke="#495057" stroke-width="2" fill="none" fill-rule="nonzero" />
<text x="549" y="381.9" font-family="Excalifont, Comic Neue, Segoe Print, sans-serif" font-size="11" fill="#495057" text-anchor="start">N=500</text>
<text x="670" y="44.4" font-family="Excalifont, Comic Neue, Segoe Print, sans-serif" font-size="16" fill="#1e1e1e" text-anchor="start">C: CPU-bound File I/O</text>
<path d="M658.7477503558825 79.89966880754359 C656.8743172464053 154.95868788437016, 656.6579844208615 233.2434521846617, 659.7770651629423 359.13116038945327 M659.7863640504677 80.28584012381788 C659.3872394683059 183.60816975712655, 659.5976991529246 286.2679129524088, 660.4964462085718 360.6343939707529" stroke="#868e96" stroke-width="1" fill="none" fill-rule="nonzero" />
<path d="M660.8714532459428 361.1348749049585 C703.3834761523673 361.7549577111645, 751.790990665939 360.64677692140674, 859.5422184709746 358.58946041752125 M659.7777563486446 359.7667854248923 C722.4492165824755 358.90345603349465, 785.5029007287974 359.86608526972026, 860.7707833616246 359.7585409817136" stroke="#868e96" stroke-width="1" fill="none" fill-rule="nonzero" />
<path d="M659.8680467175362 358.69912619277954 C724.6823602483224 360.8392195367462, 792.5565781695391 359.62188881435287, 859.5357243449234 358.3024537986707 M659.7081686682425 359.40283273466946 C704.5286731190354 360.16418591796946, 748.1087754202367 359.62549162859915, 860.2004534457002 359.5678293931087" stroke="#e9ecef" stroke-width="1" fill="none" fill-rule="nonzero" />
<path d="M661.7349194444881 288.31596088564874 C733.4396437620866 289.61393388045144, 807.8792719410781 289.30518980425296, 859.183096540189 290.51387546186294 M660.2044500798334 289.89491963452093 C702.1306679024592 290.21606951616803, 744.0249069927224 290.2199267699836, 860.4007100388712 290.4330783558676" stroke="#e9ecef" stroke-width="1" fill="none" fill-rule="nonzero" />
<path d="M660.7102817563208 220.60115535938925 C712.0831433011754 219.65359091166974, 765.6629914102848 220.84956258691835, 859.9306828921883 218.29727282409996 M659.3911150493424 219.8654388056158 C725.9642295871896 221.63797069413408, 791.4603820588519 221.7589420141979, 859.3250894466377 220.45147864398112" stroke="#e9ecef" stroke-width="1" fill="none" fill-rule="nonzero" />
<path d="M659.969069077522 150.89028106330753 C717.418382092176 150.75936389831136, 777.5219788150172 151.47376298803675, 858.8375125995656 150.74954162923657 M660.4666948111525 149.67606114327643 C703.3984736098378 150.27420186561488, 748.3195537447676 150.20454012401777, 859.7749880829763 149.33598534530392" stroke="#e9ecef" stroke-width="1" fill="none" fill-rule="nonzero" />
<path d="M659.4841768211581 81.17996612407981 C714.7062361428198 78.85488422066999, 768.2354181551132 77.86397475053202, 859.6305917528294 78.57938882755755 M659.800199259389 79.53983396803807 C721.5615373045771 81.29486454098185, 782.9679525322506 81.02861323320319, 860.2241984701158 79.19702695552972" stroke="#e9ecef" stroke-width="1" fill="none" fill-rule="nonzero" />
<path d="M676.0793658718467 116.36538452627568 L705.9656986221671 117.53357524397282 L703.6998325809836 359.61851666122675 L676.4177540764213 360.4070229306817" stroke="none" stroke-width="0" fill="#a5d8ff" fill-rule="nonzero" />
<path d="M676.9919280782342 118.6556490582457 C679.6041430942714 116.8190690108618, 685.826686784625 116.91259322846739, 705.7757513299584 116.58783303918747 M675.3566879741848 117.98058648752479 C682.5463681593537 118.5328896262726, 688.4449831284583 118.06588330055087, 705.2490380518138 117.61118372129707 M703.6505268090857 119.21598670774888 C702.0896974677088 212.90226308918986, 702.6754025018654 308.46307626086394, 703.7019128429135 359.9591287288264 M705.4819953102045 118.50271338981977 C704.1568773141179 195.25974273992378, 705.5924000015858 270.6209356786268, 705.6473094689417 359.359305768391 M706.2988209500909 359.3860818371177 C699.6986625231802 358.92080109901724, 693.279633551836 361.8644382316619, 673.3030574098229 358.88422956317663 M704.6342832557857 360.4870400317013 C694.9415041059256 358.97350759245455, 684.558978099376 358.9275141451508, 674.3450155965984 359.2478634007275 M673.6860780111399 359.6198514945463 C675.0222348091556 297.78943913409404, 676.640123378364 235.17308848498237, 675.3677323935652 117.17682488828142 M675.6177103618593 360.63421425734975 C676.5610741514082 298.36127826985364, 675.906867110306 236.79156839890751, 674.9183181654724 118.45917725480925" stroke="#495057" stroke-width="2" fill="none" fill-rule="nonzero" />
<path d="M713.752242103219 117.51548756283063 L744.7862992435694 116.4877094141795 L744.9072857052088 358.58827613294125 L711.6772132068872 359.758709654212" stroke="none" stroke-width="0" fill="#b2f2bb" fill-rule="nonzero" />
<path d="M712.6815392822027 117.61961428445119 C724.9807641580701 118.78538312014479, 736.8539483845234 118.81930293139357, 744.4101860374212 117.12713543694753 M712.1735465601087 118.30292608212966 C721.6923104375601 117.66547282632726, 730.599509678781 118.26904591020482, 742.7533493116498 117.96154572438735 M742.4455938270194 116.46192184638919 C745.0766501654077 178.3435261676062, 743.8034697891981 235.58905305525835, 742.2513543798237 361.63100343672403 M743.5552620607673 117.76492659629879 C741.6708140319444 193.57922191398484, 742.2151093637118 268.51008425398015, 743.3852241287518 360.8231272760103 M743.0537421554327 358.1875848919153 C736.1993658170104 361.7669482640922, 726.929691016674 360.65032486245036, 711.8233740180731 359.0872264057398 M742.6587174013257 359.94767939299345 C735.1732319891453 359.8893552802503, 726.4536233469844 359.6465691111982, 713.4399514272809 360.8953462764621 M711.7844510587854 360.7138163755613 C711.7744600923277 304.75262610924733, 712.0718975945226 251.47405016602835, 711.8665927368422 119.58867132563832 M713.7436849910638 359.6231522532245 C711.8039420230456 299.18676082088643, 711.5919065117786 237.1062107254412, 713.3148832990798 118.26032970235424" stroke="#495057" stroke-width="2" fill="none" fill-rule="nonzero" />
<text x="673" y="381.9" font-family="Excalifont, Comic Neue, Segoe Print, sans-serif" font-size="11" fill="#495057" text-anchor="start">N=50</text>
<path d="M761.7054219078273 114.67629734496083 L793.8783693742007 113.02344665745701 L793.1228328775615 361.26583276875317 L762.0135804843158 360.54355840571225" stroke="none" stroke-width="0" fill="#a5d8ff" fill-rule="nonzero" />
<path d="M761.8816186655313 111.86998847568836 C771.435585222207 112.57848964132796, 775.0202391110361 112.56372539200316, 794.5498709548265 115.07624504412021 M763.9684685086831 114.19876725947913 C770.1542463321239 113.34910482638013, 777.7201120080426 114.4537669765247, 792.6054951464757 114.11160014545973 M791.396346409882 111.75784557258558 C793.6598899455126 195.52147350386153, 791.1288076953223 278.9028073118217, 792.0786415588966 358.55675115963294 M792.2797456296364 114.06548809603173 C791.9262902893486 200.17303125651904, 790.6061373350192 288.43401108994374, 793.4445433327489 359.495015315477 M793.7223585117608 360.96772120706737 C786.2949553253129 358.4598535493948, 779.3314670100808 361.54633518019693, 764.0371295083314 359.2784966658801 M793.6558933472261 360.62776395026594 C784.3248052410781 360.0785326276906, 773.914027155377 359.6908909295686, 762.9992931997404 359.88204466644675 M764.3398244355541 361.5551021770706 C760.521432192139 281.27271053478916, 761.8613270493978 204.5211391036187, 761.6420880532673 113.26995021906244 M762.6375523602322 359.37249855765896 C760.7883250587917 294.8286585074208, 761.2076944863438 228.94756045951604, 762.3625517180832 112.69797833899194" stroke="#495057" stroke-width="2" fill="none" fill-rule="nonzero" />
<path d="M800.3244184032083 114.25612588109877 L829.78163728863 113.66894407453444 L829.9286526218057 360.9907071813941 L799.4263530746102 358.48926451057196" stroke="none" stroke-width="0" fill="#b2f2bb" fill-rule="nonzero" />
<path d="M801.8874221071601 114.00791934015658 C810.4945157058537 113.48074494818654, 817.8833704739809 115.29864346007314, 831.8808052763343 114.60687854769137 M801.6347625739872 113.87959355371501 C812.1350717172027 113.41495499531236, 824.7030574046075 113.7867235891005, 830.4540290124714 112.68984562414195 M832.1318639258136 112.05811765393904 C831.9023553795537 208.92102654575385, 832.6876870849728 302.9702273587911, 830.3833789162416 360.2348642790766 M831.7994242322196 113.11845382646034 C830.734772345023 175.87709410229684, 830.7063346362725 239.23452704611623, 831.2086525368563 359.98656674934585 M830.5497369989753 361.3546775355935 C824.0227346383035 361.62160181216893, 816.1754426658154 358.21341084651647, 802.6225116476417 360.2597433105111 M830.8093309886754 360.2161543481052 C824.8825248628855 359.96777751706543, 819.43770192191 359.7080840136856, 801.980625320226 359.7648326270282 M799.6525438443509 361.62529104824546 C802.5752030220639 281.15319036377406, 801.4533117014329 200.52663355237306, 801.0323802523784 114.36840452534138 M800.3754075516407 360.17323876897916 C802.0590257241461 286.01227515527125, 801.6839758476624 210.97597548605017, 801.2045572339721 112.85200385628283" stroke="#495057" stroke-width="2" fill="none" fill-rule="nonzero" />
<text x="761" y="381.9" font-family="Excalifont, Comic Neue, Segoe Print, sans-serif" font-size="11" fill="#495057" text-anchor="start">N=200</text>
<path d="M852.2494407184422 118.73753530812948 L882.1976279504597 117.68341202569692 L882.6126616485417 360.7904367558658 L850.1726423986256 358.62122405692935" stroke="none" stroke-width="0" fill="#a5d8ff" fill-rule="nonzero" />
<path d="M852.0556467883289 120.11073480827301 C859.2676478270441 117.5073075518155, 869.9458468332887 119.59298791737794, 879.1088760010898 120.53806399089783 M851.9233806971461 119.49424732198506 C858.2197595648468 119.05419777931212, 864.2418102007359 118.508009246006, 881.6220973972231 118.24807674159794 M880.3622344243688 119.58831138090825 C880.4396506777302 204.77719826132815, 877.7852118323971 288.82946473556086, 880.8966235036618 359.5704867931926 M881.3566072730981 118.45646679587583 C879.431585640605 200.04642398986442, 879.327451392133 283.1254055933556, 881.0370477315681 360.3705031420503 M880.4516006819904 360.216520357877 C871.7911389451474 359.36794641222804, 861.8974122852087 359.87109961714594, 849.3318791501224 358.13845555856824 M881.9152173642069 360.45738763175905 C870.4759711697698 359.0052654935047, 859.7312688138336 360.0792589975521, 850.6365056280047 359.7631694134325 M851.1210925395479 360.70601046240876 C849.6010037099765 290.4258442042577, 847.9608059606902 217.8787913281542, 849.8189957097218 119.22486555705953 M851.3494791271684 359.67547580261487 C851.6707554169532 270.64529434539463, 850.3125036814173 181.5691314248459, 851.5263176288462 119.19091341776192" stroke="#495057" stroke-width="2" fill="none" fill-rule="nonzero" />
<path d="M887.5294267255813 117.19439361129241 L920.0601645428687 114.4395718935533 L918.0610275585204 358.86127733998 L889.7184781748801 361.6599796395749" stroke="none" stroke-width="0" fill="#b2f2bb" fill-rule="nonzero" />
<path d="M887.9675654750317 114.58996833373146 C899.1006396869197 115.37994432082685, 912.9296958781779 113.85741179814848, 918.2561970930547 115.12680191804009 M889.4344203332439 115.14082909353363 C897.9596371483058 115.47149181520851, 908.2225105566904 115.9496450737706, 918.1338359275833 114.63098344929801 M919.8522973192665 113.79081347519129 C919.306847237077 205.53924967613256, 917.6476567114149 294.94245080059505, 919.652853551309 361.5381240110515 M919.6193440273228 115.29737957700775 C917.8704302172299 194.7689215746935, 918.05458848758 275.04960456712223, 919.4024490299047 359.2251026623711 M920.3365452867001 360.3775343019515 C908.5865412456915 358.8099619067274, 899.7272213324904 361.2385211504064, 887.4539694767445 359.5606119353324 M918.5202560881153 360.281629412435 C913.0852720029652 360.3801263975911, 906.7290699994192 360.1781744468026, 889.2026447812095 359.8662337651476 M890.0249264607564 358.6713066848795 C887.7168910252021 262.44714469508307, 886.773460634867 165.16949296380463, 889.6159651207555 115.61603553884498 M888.9651650503213 360.57174115553244 C889.6884581691406 283.72118862881393, 889.9854259645869 207.48446874866804, 889.4139421230884 114.6012557368112" stroke="#495057" stroke-width="2" fill="none" fill-rule="nonzero" />
<text x="849" y="381.9" font-family="Excalifont, Comic Neue, Segoe Print, sans-serif" font-size="11" fill="#495057" text-anchor="start">N=500</text>
<path d="M808.4644590523094 31.902914026752114 L825.5629853513092 30.865893045440316 L827.5231964495033 40.21581397391856 L809.556335022673 41.84787944890559" stroke="none" stroke-width="0" fill="#a5d8ff" fill-rule="nonzero" />
<path d="M810.9009707763792 29.560346595942974 C814.1407180547714 29.152452304810286, 817.3356731578708 29.736029508560893, 825.0905048206448 28.558197347819807 M810.1724468432367 29.38156987801194 C814.9037581242621 30.482567160725594, 819.2822579734027 29.699652689099313, 826.5294448815287 30.033876267820595 M825.7470764037222 29.925084072723983 C826.4656635256484 32.9534188516438, 825.0898861022666 36.86340074054897, 824.969365715608 41.85245811380446 M825.4389323683456 29.504352408461273 C826.2821635928005 32.904142069257794, 825.8583323147149 35.350129049085076, 825.9382332118228 42.45536789875477 M826.3936779335141 40.42752865999937 C821.8657047182321 43.64455526962876, 818.5875682339072 41.67527907982468, 809.5970944240689 42.94494423121214 M826.2443633757532 42.46451098099351 C820.6065786965191 41.27037252396345, 815.7772618822753 41.59970017880201, 809.9584582768381 41.539481250196694 M810.2244124051183 41.01120746769011 C811.1205530258641 38.475932085514074, 808.7937784406171 33.29078525863588, 809.7976164814085 31.14517406858504 M810.2986654372886 42.079323357157406 C809.9260726167262 38.63968626279384, 809.7208978785575 36.35243545230478, 810.2457327755168 29.76680697184056" stroke="#1e1e1e" stroke-width="2" fill="none" fill-rule="nonzero" />
<text x="832" y="37.9" font-family="Excalifont, Comic Neue, Segoe Print, sans-serif" font-size="11" fill="#495057" text-anchor="start">Platform</text>
<path d="M911.1319577302784 30.73159826733172 L924.9799623694271 31.763534614816308 L925.5793917980045 42.82148147560656 L911.7323090042919 42.28794617392123" stroke="none" stroke-width="0" fill="#b2f2bb" fill-rule="nonzero" />
<path d="M911.281092698872 29.62566725462675 C915.7137920141221 30.311687598675487, 920.8996727868915 29.29340704485774, 926.0195715978741 30.740600983798505 M909.6643177591264 29.48255079165101 C913.7593527235091 29.245467522740366, 917.8758316271006 30.65551684200764, 926.466344102472 30.496170429140328 M926.5084898289293 30.512532246485353 C924.7655181171373 33.67170680835843, 924.8663140656427 38.35711466185749, 925.0528820689767 41.27035157717764 M925.6215437652543 30.33909259121865 C926.2524031498283 33.06088842395693, 925.3197209157794 35.89775059428066, 926.4402878345921 41.93406359832734 M926.234738881886 41.88056751936674 C923.5841810613871 41.64339888468385, 919.1829961046577 42.404345015436405, 909.3947662428021 42.76130630224943 M925.9688873372972 42.56065867319703 C920.5382980115712 42.180162291228775, 915.6271506719291 42.02508557289839, 910.3519119106234 41.93983769789338 M911.1541741427034 41.540042436495426 C909.6811847772822 38.911626398563385, 909.2832906928286 35.90800322256982, 910.168902533874 30.294212627783416 M910.0082141282037 42.5041825203225 C910.2937380053103 37.80247329790145, 910.2948673404753 32.3788553154096, 909.7389397801832 29.562129220180214" stroke="#1e1e1e" stroke-width="2" fill="none" fill-rule="nonzero" />
<text x="932" y="37.9" font-family="Excalifont, Comic Neue, Segoe Print, sans-serif" font-size="11" fill="#495057" text-anchor="start">Virtual</text>
<text x="90" y="348.04375" font-family="Excalifont, Comic Neue, Segoe Print, sans-serif" font-size="10" fill="#1e1e1e" text-anchor="middle">48</text>
<text x="128" y="347.97666666666663" font-family="Excalifont, Comic Neue, Segoe Print, sans-serif" font-size="10" fill="#1e1e1e" text-anchor="middle">48</text>
<text x="178" y="306.6095833333334" font-family="Excalifont, Comic Neue, Segoe Print, sans-serif" font-size="10" fill="#1e1e1e" text-anchor="middle">190</text>
<text x="216" y="306.11083333333335" font-family="Excalifont, Comic Neue, Segoe Print, sans-serif" font-size="10" fill="#1e1e1e" text-anchor="middle">192</text>
<text x="266" y="306.1429166666667" font-family="Excalifont, Comic Neue, Segoe Print, sans-serif" font-size="10" fill="#1e1e1e" text-anchor="middle">192</text>
<text x="304" y="233.025" font-family="Excalifont, Comic Neue, Segoe Print, sans-serif" font-size="10" fill="#1e1e1e" text-anchor="middle">442</text>
<text x="390" y="249.06666666666666" font-family="Excalifont, Comic Neue, Segoe Print, sans-serif" font-size="10" fill="#1e1e1e" text-anchor="middle">9.7</text>
<text x="428" y="249.41666666666666" font-family="Excalifont, Comic Neue, Segoe Print, sans-serif" font-size="10" fill="#1e1e1e" text-anchor="middle">9.7</text>
<text x="478" y="255.95" font-family="Excalifont, Comic Neue, Segoe Print, sans-serif" font-size="10" fill="#1e1e1e" text-anchor="middle">9.1</text>
<text x="516" y="256.06666666666666" font-family="Excalifont, Comic Neue, Segoe Print, sans-serif" font-size="10" fill="#1e1e1e" text-anchor="middle">9.1</text>
<text x="566" y="274.0333333333333" font-family="Excalifont, Comic Neue, Segoe Print, sans-serif" font-size="10" fill="#1e1e1e" text-anchor="middle">7.5</text>
<text x="604" y="275.9" font-family="Excalifont, Comic Neue, Segoe Print, sans-serif" font-size="10" fill="#1e1e1e" text-anchor="middle">7.4</text>
<text x="690" y="241.1476923076923" font-family="Excalifont, Comic Neue, Segoe Print, sans-serif" font-size="10" fill="#1e1e1e" text-anchor="middle">56</text>
<text x="728" y="241.01846153846154" font-family="Excalifont, Comic Neue, Segoe Print, sans-serif" font-size="10" fill="#1e1e1e" text-anchor="middle">56</text>
<text x="778" y="238.6276923076923" font-family="Excalifont, Comic Neue, Segoe Print, sans-serif" font-size="10" fill="#1e1e1e" text-anchor="middle">57</text>
<text x="816" y="238.6276923076923" font-family="Excalifont, Comic Neue, Segoe Print, sans-serif" font-size="10" fill="#1e1e1e" text-anchor="middle">57</text>
<text x="866" y="241.4923076923077" font-family="Excalifont, Comic Neue, Segoe Print, sans-serif" font-size="10" fill="#1e1e1e" text-anchor="middle">56</text>
<text x="904" y="239.61846153846153" font-family="Excalifont, Comic Neue, Segoe Print, sans-serif" font-size="10" fill="#1e1e1e" text-anchor="middle">57</text>
<text x="818" y="40" font-family="Excalifont, Comic Neue, Segoe Print, sans-serif" font-size="20" fill="#1e1e1e" text-anchor="middle"></text>
<text x="918" y="40" font-family="Excalifont, Comic Neue, Segoe Print, sans-serif" font-size="20" fill="#1e1e1e" text-anchor="middle"></text>
</g>
</svg>